<?xml version="1.0" encoding="UTF-8"?>
<!-- Generator: Adobe Illustrator 23.0.4, SVG Export Plug-In . SVG Version: 6.00 Build 0)  -->
<svg version="1.1" id="Layer_1" xmlns="http://www.w3.org/2000/svg" xmlns:xlink="http://www.w3.org/1999/xlink" x="0px" y="0px" width="706px" height="184px" viewBox="0 0 706 184" style="enable-background:new 0 0 706 184;" xml:space="preserve">
<style type="text/css">
	.st0{enable-background:new    ;}
	.st1{fill:#FFFFFF;}
	.st2{fill-rule:evenodd;clip-rule:evenodd;fill:#FFFFFF;}
</style>
<title>Group 53</title>
<desc>Created with Sketch.</desc>
<g id="Updates">
	<g id="Group-53">
		<g class="st0">
			<path class="st1" d="M262.8,144.2v10h12.6v5.2h-12.6v10.2h16.1v5.4H256v-36.2h22.8v5.4H262.8z"/>
			<path class="st1" d="M283.3,175v-25.7h3.8c0.8,0,1.3,0.4,1.6,1.1l0.4,1.9c0.5-0.5,0.9-1,1.4-1.4c0.5-0.4,1-0.8,1.6-1.1     c0.6-0.3,1.2-0.5,1.8-0.7c0.6-0.2,1.3-0.3,2.1-0.3c1.6,0,2.9,0.4,4,1.3c1,0.9,1.8,2,2.3,3.5c0.4-0.8,0.9-1.6,1.5-2.2     s1.3-1.1,2-1.5c0.7-0.4,1.5-0.7,2.3-0.9c0.8-0.2,1.6-0.3,2.4-0.3c1.4,0,2.7,0.2,3.8,0.6c1.1,0.4,2,1.1,2.8,1.9     c0.8,0.8,1.3,1.8,1.7,3s0.6,2.6,0.6,4.1V175h-6.2v-16.3c0-1.6-0.4-2.9-1.1-3.7c-0.7-0.8-1.8-1.2-3.2-1.2c-0.6,0-1.2,0.1-1.8,0.3     c-0.5,0.2-1,0.5-1.4,0.9s-0.7,0.9-1,1.5c-0.2,0.6-0.4,1.3-0.4,2.1V175h-6.2v-16.3c0-1.7-0.3-3-1-3.8c-0.7-0.8-1.7-1.2-3-1.2     c-0.9,0-1.7,0.2-2.5,0.7c-0.8,0.4-1.5,1-2.2,1.8V175H283.3z"/>
			<path class="st1" d="M331.3,152.5c1-1.1,2.2-1.9,3.4-2.6c1.3-0.6,2.7-1,4.3-1c1.5,0,2.8,0.3,4,0.9s2.2,1.4,3.1,2.5     c0.8,1.1,1.5,2.4,1.9,4c0.4,1.5,0.7,3.3,0.7,5.2c0,2.1-0.3,4-0.8,5.7s-1.3,3.2-2.2,4.4c-1,1.2-2.1,2.1-3.5,2.8     c-1.4,0.7-2.9,1-4.5,1c-0.8,0-1.5-0.1-2.2-0.2s-1.2-0.4-1.8-0.7c-0.6-0.3-1.1-0.6-1.5-1s-0.9-0.9-1.3-1.4l-0.3,1.7     c-0.1,0.4-0.3,0.7-0.5,0.9c-0.2,0.2-0.6,0.3-1,0.3h-4.1v-37.2h6.2V152.5z M331.3,168.3c0.7,0.9,1.5,1.5,2.3,1.8     c0.8,0.3,1.7,0.5,2.6,0.5c1,0,1.8-0.2,2.6-0.5c0.8-0.3,1.4-0.9,1.9-1.6c0.5-0.7,0.9-1.7,1.2-2.8c0.3-1.1,0.4-2.5,0.4-4     c0-2.8-0.5-4.9-1.4-6.1c-0.9-1.3-2.3-1.9-4-1.9c-1.2,0-2.2,0.3-3.1,0.8c-0.9,0.5-1.7,1.3-2.5,2.3V168.3z"/>
			<path class="st1" d="M358.2,163c0.1,1.3,0.3,2.5,0.7,3.4c0.4,1,0.9,1.8,1.5,2.4c0.6,0.6,1.3,1.1,2.1,1.4c0.8,0.3,1.7,0.5,2.7,0.5     s1.9-0.1,2.6-0.3s1.4-0.5,1.9-0.8c0.5-0.3,1-0.5,1.4-0.8s0.8-0.4,1.2-0.4c0.5,0,0.9,0.2,1.2,0.6l1.8,2.2c-0.7,0.8-1.5,1.5-2.3,2     c-0.8,0.5-1.7,1-2.7,1.3c-0.9,0.3-1.9,0.6-2.8,0.7c-1,0.1-1.9,0.2-2.8,0.2c-1.8,0-3.4-0.3-5-0.9c-1.5-0.6-2.9-1.5-4-2.6     c-1.1-1.2-2-2.6-2.7-4.3c-0.6-1.7-1-3.7-1-5.9c0-1.8,0.3-3.4,0.9-4.9c0.6-1.5,1.4-2.9,2.4-4c1.1-1.1,2.4-2,3.9-2.7     c1.5-0.7,3.2-1,5.2-1c1.6,0,3.1,0.3,4.5,0.8c1.4,0.5,2.5,1.3,3.5,2.3c1,1,1.8,2.2,2.3,3.7c0.6,1.4,0.8,3.1,0.8,4.9     c0,0.9-0.1,1.6-0.3,1.9c-0.2,0.3-0.6,0.5-1.2,0.5H358.2z M370,159.2c0-0.8-0.1-1.6-0.3-2.3c-0.2-0.7-0.6-1.3-1-1.9     c-0.5-0.5-1-1-1.7-1.3c-0.7-0.3-1.5-0.5-2.4-0.5c-1.8,0-3.2,0.5-4.2,1.5c-1,1-1.7,2.5-2,4.3H370z"/>
			<path class="st1" d="M402.5,137.8V175h-3.8c-0.8,0-1.3-0.4-1.5-1.1l-0.5-2.5c-1,1.2-2.2,2.1-3.6,2.9c-1.3,0.7-2.9,1.1-4.7,1.1     c-1.4,0-2.7-0.3-3.9-0.9s-2.2-1.4-3-2.5s-1.5-2.5-1.9-4.1c-0.5-1.6-0.7-3.5-0.7-5.6c0-1.9,0.3-3.7,0.8-5.3s1.3-3,2.2-4.2     c1-1.2,2.1-2.1,3.5-2.8s2.9-1,4.5-1c1.4,0,2.7,0.2,3.7,0.7s1.9,1.1,2.7,1.8v-13.5H402.5z M396.3,155.9c-0.7-0.9-1.5-1.5-2.3-1.8     c-0.8-0.3-1.7-0.5-2.7-0.5c-0.9,0-1.8,0.2-2.5,0.5c-0.8,0.4-1.4,0.9-1.9,1.6c-0.5,0.7-0.9,1.6-1.2,2.7s-0.4,2.4-0.4,3.9     c0,1.5,0.1,2.8,0.4,3.8c0.2,1,0.6,1.9,1,2.5c0.5,0.7,1,1.1,1.6,1.4c0.7,0.3,1.4,0.4,2.2,0.4c1.3,0,2.4-0.3,3.3-0.8     c0.9-0.5,1.8-1.3,2.5-2.3V155.9z"/>
			<path class="st1" d="M430.8,137.8V175h-3.8c-0.8,0-1.3-0.4-1.6-1.1l-0.5-2.5c-1,1.2-2.2,2.1-3.6,2.9c-1.3,0.7-2.9,1.1-4.7,1.1     c-1.4,0-2.7-0.3-3.9-0.9c-1.2-0.6-2.2-1.4-3-2.5s-1.5-2.5-2-4.1c-0.5-1.6-0.7-3.5-0.7-5.6c0-1.9,0.3-3.7,0.8-5.3     c0.5-1.6,1.3-3,2.2-4.2c1-1.2,2.1-2.1,3.5-2.8c1.3-0.7,2.9-1,4.5-1c1.4,0,2.7,0.2,3.7,0.7c1,0.5,1.9,1.1,2.7,1.8v-13.5H430.8z      M424.7,155.9c-0.7-0.9-1.5-1.5-2.3-1.8c-0.8-0.3-1.7-0.5-2.7-0.5c-0.9,0-1.8,0.2-2.5,0.5c-0.8,0.4-1.4,0.9-1.9,1.6     c-0.5,0.7-0.9,1.6-1.2,2.7s-0.4,2.4-0.4,3.9c0,1.5,0.1,2.8,0.4,3.8c0.2,1,0.6,1.9,1,2.5c0.5,0.7,1,1.1,1.7,1.4     c0.7,0.3,1.4,0.4,2.2,0.4c1.3,0,2.4-0.3,3.3-0.8c0.9-0.5,1.8-1.3,2.5-2.3V155.9z"/>
			<path class="st1" d="M441.7,163c0.1,1.3,0.3,2.5,0.7,3.4c0.4,1,0.8,1.8,1.5,2.4c0.6,0.6,1.3,1.1,2.1,1.4c0.8,0.3,1.7,0.5,2.7,0.5     s1.9-0.1,2.6-0.3c0.7-0.2,1.4-0.5,1.9-0.8c0.5-0.3,1-0.5,1.4-0.8s0.8-0.4,1.2-0.4c0.5,0,0.9,0.2,1.2,0.6l1.8,2.2     c-0.7,0.8-1.4,1.5-2.3,2c-0.8,0.5-1.7,1-2.7,1.3s-1.9,0.6-2.8,0.7c-1,0.1-1.9,0.2-2.8,0.2c-1.8,0-3.4-0.3-5-0.9     c-1.5-0.6-2.9-1.5-4-2.6c-1.1-1.2-2-2.6-2.7-4.3c-0.7-1.7-1-3.7-1-5.9c0-1.8,0.3-3.4,0.8-4.9c0.6-1.5,1.4-2.9,2.4-4     c1.1-1.1,2.3-2,3.9-2.7s3.2-1,5.2-1c1.6,0,3.1,0.3,4.5,0.8c1.4,0.5,2.5,1.3,3.5,2.3c1,1,1.8,2.2,2.3,3.7s0.8,3.1,0.8,4.9     c0,0.9-0.1,1.6-0.3,1.9c-0.2,0.3-0.6,0.5-1.2,0.5H441.7z M453.5,159.2c0-0.8-0.1-1.6-0.3-2.3c-0.2-0.7-0.6-1.3-1-1.9     c-0.4-0.5-1-1-1.7-1.3c-0.7-0.3-1.5-0.5-2.4-0.5c-1.8,0-3.2,0.5-4.2,1.5c-1,1-1.7,2.5-2,4.3H453.5z"/>
			<path class="st1" d="M485.9,137.8V175h-3.8c-0.8,0-1.3-0.4-1.6-1.1l-0.5-2.5c-1,1.2-2.2,2.1-3.6,2.9c-1.3,0.7-2.9,1.1-4.7,1.1     c-1.4,0-2.7-0.3-3.9-0.9c-1.2-0.6-2.2-1.4-3-2.5s-1.5-2.5-2-4.1c-0.5-1.6-0.7-3.5-0.7-5.6c0-1.9,0.3-3.7,0.8-5.3     c0.5-1.6,1.3-3,2.2-4.2c1-1.2,2.1-2.1,3.5-2.8c1.3-0.7,2.9-1,4.5-1c1.4,0,2.7,0.2,3.7,0.7c1,0.5,1.9,1.1,2.7,1.8v-13.5H485.9z      M479.7,155.9c-0.7-0.9-1.5-1.5-2.3-1.8c-0.8-0.3-1.7-0.5-2.7-0.5c-0.9,0-1.8,0.2-2.5,0.5c-0.8,0.4-1.4,0.9-1.9,1.6     c-0.5,0.7-0.9,1.6-1.2,2.7s-0.4,2.4-0.4,3.9c0,1.5,0.1,2.8,0.4,3.8c0.2,1,0.6,1.9,1,2.5c0.5,0.7,1,1.1,1.7,1.4     c0.7,0.3,1.4,0.4,2.2,0.4c1.3,0,2.4-0.3,3.3-0.8c0.9-0.5,1.8-1.3,2.5-2.3V155.9z"/>
			<path class="st1" d="M534.4,175h-5.2c-0.6,0-1.1-0.1-1.4-0.4c-0.4-0.3-0.6-0.7-0.8-1.1l-2.7-7.4h-15l-2.7,7.4     c-0.1,0.4-0.4,0.7-0.8,1.1s-0.9,0.5-1.4,0.5h-5.2l14.2-36.2h6.8L534.4,175z M522.6,161.3l-4.4-12c-0.2-0.5-0.4-1.2-0.7-1.9     c-0.2-0.7-0.5-1.5-0.7-2.4c-0.2,0.9-0.4,1.6-0.7,2.4c-0.2,0.7-0.5,1.4-0.7,1.9l-4.4,12H522.6z"/>
			<path class="st1" d="M542.9,152.5c0.5-0.5,1.1-1,1.6-1.4c0.6-0.4,1.2-0.8,1.8-1.1s1.3-0.5,2.1-0.7c0.7-0.2,1.5-0.3,2.4-0.3     c1.4,0,2.6,0.2,3.7,0.7c1.1,0.5,2,1.1,2.7,2c0.7,0.9,1.3,1.9,1.7,3.1c0.4,1.2,0.6,2.5,0.6,3.9V175h-6.2v-16.3     c0-1.6-0.4-2.8-1.1-3.6c-0.7-0.9-1.8-1.3-3.3-1.3c-1.1,0-2.1,0.2-3,0.7c-0.9,0.5-1.8,1.1-2.7,2V175h-6.2v-25.7h3.8     c0.8,0,1.3,0.4,1.6,1.1L542.9,152.5z"/>
			<path class="st1" d="M564.8,152.9c2.9-2.7,6.5-4,10.6-4c1.5,0,2.8,0.2,4,0.7c1.2,0.5,2.2,1.2,3,2s1.4,1.9,1.9,3.1     c0.4,1.2,0.6,2.5,0.6,4V175h-2.8c-0.6,0-1-0.1-1.4-0.3c-0.3-0.2-0.6-0.5-0.8-1.1l-0.5-1.8c-0.7,0.6-1.3,1.1-1.9,1.5     c-0.6,0.4-1.3,0.8-1.9,1.1c-0.7,0.3-1.4,0.5-2.1,0.7s-1.6,0.2-2.5,0.2c-1.1,0-2.1-0.1-3-0.4c-0.9-0.3-1.7-0.7-2.4-1.3     c-0.7-0.6-1.2-1.3-1.6-2.2c-0.4-0.9-0.5-1.9-0.5-3c0-0.7,0.1-1.3,0.3-1.9s0.6-1.3,1.1-1.8c0.5-0.6,1.1-1.1,1.9-1.6s1.7-1,2.9-1.4     c1.1-0.4,2.5-0.7,4-0.9c1.5-0.2,3.2-0.4,5.2-0.4v-1.5c0-1.7-0.4-3-1.1-3.8c-0.7-0.8-1.8-1.2-3.2-1.2c-1,0-1.8,0.1-2.5,0.3     c-0.7,0.2-1.2,0.5-1.7,0.8s-1,0.6-1.4,0.8s-0.9,0.4-1.4,0.4c-0.4,0-0.8-0.1-1.1-0.3c-0.3-0.2-0.5-0.5-0.7-0.8L564.8,152.9z      M578.9,164c-1.8,0.1-3.3,0.2-4.5,0.5c-1.2,0.2-2.2,0.5-2.9,0.9c-0.7,0.3-1.3,0.8-1.6,1.2c-0.3,0.5-0.5,1-0.5,1.5     c0,1.1,0.3,1.9,1,2.3s1.5,0.7,2.5,0.7c1.3,0,2.4-0.2,3.3-0.7c0.9-0.5,1.8-1.2,2.7-2.1V164z"/>
			<path class="st1" d="M597,137.8V175h-6.2v-37.2H597z"/>
			<path class="st1" d="M626.5,149.3l-14,32.7c-0.2,0.4-0.4,0.8-0.7,1c-0.3,0.2-0.7,0.3-1.3,0.3h-4.6l4.8-10.3l-10.4-23.7h5.4     c0.5,0,0.9,0.1,1.1,0.4s0.5,0.5,0.6,0.8l5.4,13.3c0.2,0.5,0.3,0.9,0.5,1.4c0.1,0.4,0.2,0.9,0.4,1.4c0.1-0.5,0.3-0.9,0.5-1.4     s0.3-0.9,0.5-1.4l5.2-13.3c0.1-0.3,0.4-0.6,0.7-0.8c0.3-0.2,0.7-0.3,1-0.3H626.5z"/>
			<path class="st1" d="M655.4,175h-6.2v-21h-11.9v13.9c0,0.8,0.2,1.4,0.6,1.9c0.4,0.5,0.9,0.7,1.6,0.7c0.4,0,0.7,0,1-0.1     c0.3-0.1,0.5-0.2,0.7-0.3s0.4-0.2,0.5-0.3c0.1-0.1,0.3-0.1,0.4-0.1c0.2,0,0.3,0,0.5,0.1s0.2,0.2,0.4,0.4l1.9,3     c-0.9,0.8-1.9,1.3-3.1,1.7c-1.2,0.4-2.4,0.6-3.6,0.6c-2.2,0-3.9-0.6-5.1-1.9s-1.8-3-1.8-5.2V154h-2.6c-0.3,0-0.6-0.1-0.8-0.3     c-0.2-0.2-0.4-0.5-0.4-1v-2.5l4.1-0.7l1.3-7c0.1-0.3,0.2-0.6,0.5-0.8c0.2-0.2,0.5-0.3,0.9-0.3h3.2v8.1h18.1V175z M656.5,141.8     c0,0.5-0.1,1-0.3,1.5c-0.2,0.5-0.5,0.9-0.9,1.2c-0.4,0.3-0.8,0.6-1.3,0.8c-0.5,0.2-1,0.3-1.6,0.3c-0.5,0-1-0.1-1.5-0.3     c-0.5-0.2-0.9-0.5-1.2-0.8c-0.3-0.4-0.6-0.8-0.8-1.2c-0.2-0.5-0.3-1-0.3-1.5c0-0.6,0.1-1.1,0.3-1.5c0.2-0.5,0.5-0.9,0.8-1.2     s0.8-0.6,1.2-0.8s1-0.3,1.5-0.3c0.6,0,1.1,0.1,1.6,0.3c0.5,0.2,0.9,0.5,1.3,0.8c0.4,0.4,0.6,0.8,0.9,1.2     C656.4,140.7,656.5,141.2,656.5,141.8z"/>
			<path class="st1" d="M680.1,154.8c-0.2,0.2-0.4,0.4-0.5,0.5s-0.4,0.2-0.8,0.2c-0.3,0-0.6-0.1-0.9-0.3c-0.3-0.2-0.7-0.4-1.1-0.6     c-0.4-0.2-0.9-0.5-1.5-0.7s-1.3-0.3-2.1-0.3c-1.1,0-2,0.2-2.8,0.6c-0.8,0.4-1.5,1-2,1.7s-0.9,1.6-1.2,2.7c-0.3,1-0.4,2.2-0.4,3.5     c0,1.4,0.1,2.6,0.4,3.7c0.3,1.1,0.7,2,1.3,2.7c0.5,0.7,1.2,1.3,2,1.6c0.8,0.4,1.7,0.6,2.6,0.6s1.8-0.1,2.4-0.4     c0.6-0.2,1.1-0.5,1.5-0.8c0.4-0.3,0.8-0.6,1.1-0.8c0.3-0.2,0.7-0.4,1-0.4c0.5,0,0.9,0.2,1.1,0.6l1.8,2.2c-0.7,0.8-1.4,1.5-2.2,2     c-0.8,0.5-1.6,1-2.5,1.3c-0.9,0.3-1.7,0.6-2.7,0.7s-1.8,0.2-2.7,0.2c-1.6,0-3.1-0.3-4.5-0.9c-1.4-0.6-2.6-1.5-3.7-2.6     c-1-1.1-1.9-2.5-2.5-4.2c-0.6-1.6-0.9-3.5-0.9-5.6c0-1.9,0.3-3.6,0.8-5.2s1.3-3,2.4-4.2c1-1.2,2.3-2.1,3.9-2.8     c1.5-0.7,3.3-1,5.3-1c1.9,0,3.6,0.3,5,0.9c1.4,0.6,2.7,1.5,3.9,2.7L680.1,154.8z"/>
			<path class="st1" d="M701.5,154.3c-0.2,0.3-0.3,0.5-0.5,0.6c-0.2,0.1-0.4,0.2-0.7,0.2c-0.3,0-0.6-0.1-1-0.2     c-0.3-0.2-0.7-0.4-1.2-0.6s-1-0.4-1.5-0.6c-0.6-0.2-1.3-0.2-2-0.2c-1.2,0-2.2,0.3-2.9,0.8c-0.7,0.5-1,1.2-1,2     c0,0.5,0.2,1,0.5,1.4s0.8,0.7,1.4,1s1.3,0.5,2,0.8c0.8,0.2,1.5,0.5,2.3,0.7c0.8,0.3,1.5,0.6,2.3,0.9c0.8,0.3,1.4,0.8,2,1.3     c0.6,0.5,1.1,1.2,1.4,1.9c0.4,0.7,0.5,1.6,0.5,2.7c0,1.2-0.2,2.4-0.7,3.4c-0.4,1-1.1,1.9-2,2.7c-0.9,0.8-1.9,1.4-3.2,1.8     c-1.3,0.4-2.7,0.6-4.4,0.6c-0.9,0-1.7-0.1-2.6-0.2s-1.6-0.4-2.4-0.7c-0.8-0.3-1.5-0.6-2.1-1c-0.7-0.4-1.2-0.8-1.7-1.2l1.4-2.3     c0.2-0.3,0.4-0.5,0.6-0.7s0.6-0.2,1-0.2c0.4,0,0.7,0.1,1.1,0.3c0.3,0.2,0.7,0.5,1.2,0.7c0.4,0.2,1,0.5,1.6,0.7s1.4,0.3,2.3,0.3     c0.7,0,1.4-0.1,1.9-0.3s1-0.4,1.3-0.7s0.6-0.6,0.8-1s0.2-0.8,0.2-1.2c0-0.6-0.2-1.1-0.5-1.5c-0.4-0.4-0.8-0.7-1.4-1     c-0.6-0.3-1.3-0.5-2-0.8c-0.8-0.2-1.5-0.5-2.3-0.7c-0.8-0.3-1.6-0.6-2.3-0.9c-0.8-0.4-1.4-0.8-2-1.4s-1.1-1.2-1.4-2     s-0.5-1.8-0.5-2.9c0-1.1,0.2-2.1,0.6-3c0.4-1,1-1.8,1.8-2.5c0.8-0.7,1.8-1.3,3-1.7c1.2-0.4,2.6-0.6,4.2-0.6     c1.8,0,3.4,0.3,4.8,0.9c1.5,0.6,2.7,1.3,3.6,2.3L701.5,154.3z"/>
		</g>
		<g id="Keen-Logo">
			<g id="Group-Copy-3" transform="translate(0.000000, 4.000000)">
				<polygon id="Path" class="st2" points="83.1,99.4 92.9,116 68.4,157.5 195.6,157.5 205.3,174 38.9,174     "/>
				<polygon class="st2" points="83.2,33 127.1,107.7 107.5,107.7 83.1,66.3 19.4,174 0,174     "/>
				<polygon class="st2" points="185.8,140.9 97.7,140.9 107.5,124.3 156.4,124.3 92.9,16.4 102.6,0     "/>
			</g>
			<path id="Shape-Copy-3" class="st1" d="M339.1,99.1l-41-49.5l38-37c1.6-1.6,2.4-3.3,2.4-5.3c0-3.9-3.4-7.3-7.3-7.3     c-2.6,0-4.3,1.2-5.9,2.6l-60.3,60.6V7.5c0-4.1-3.4-7.5-7.6-7.5c-4.1,0-7.5,3.4-7.5,7.5v96.9c0,4.1,3.4,7.5,7.5,7.5     c4.2,0,7.6-3.4,7.6-7.5V81.6l22.2-21.8l39.9,48.8c1.6,2.2,3.6,3.3,6.1,3.3c4.1,0,7.7-3.4,7.7-7.5     C341.1,102,340.1,100.4,339.1,99.1z M425.7,68.9c0-20.7-13.4-41.7-39-41.7C364,27.2,346.3,46,346.3,70v0.3     c0,24.4,18,42.7,41.9,42.7c12.7,0,22.5-3.8,31.5-12.3c1.5-1.3,2.4-3,2.4-4.9c0-3.5-3-6.4-6.7-6.4c-2,0-3.4,1-4.4,1.7     c-6.7,6.1-13.8,8.9-22.5,8.9c-14.2,0-24.9-9.7-27-24.2h57.2C422.5,75.8,425.7,72.7,425.7,68.9z M386.3,39.9     c15.8,0,22.9,12.3,24.4,24.4h-49.2C363.5,49.9,373.6,39.9,386.3,39.9z M514.7,68.9c0-20.7-13.4-41.7-39-41.7     C453,27.2,435.3,46,435.3,70v0.3c0,24.4,18,42.7,41.9,42.7c12.7,0,22.4-3.8,31.5-12.3c1.5-1.3,2.3-3,2.3-4.9c0-3.5-3-6.4-6.7-6.4     c-2,0-3.4,1-4.4,1.7c-6.7,6.1-13.8,8.9-22.5,8.9c-14.2,0-24.9-9.7-27-24.2h57.1C511.5,75.8,514.7,72.7,514.7,68.9z M475.3,39.9     c15.8,0,22.9,12.3,24.4,24.4h-49.2C452.5,49.9,462.6,39.9,475.3,39.9z M570.6,27.2c-11,0-19.9,4.2-26.4,12.5v-4.3     c0-4.1-3.3-7.4-7.5-7.4c-4,0-7.3,3.3-7.3,7.4v69.1c0,4.1,3.3,7.3,7.5,7.3c4.2,0,7.3-3.2,7.3-7.3V64.3c0-13.9,9.4-23.6,23-23.6     c13.2,0,21.1,8.5,21.1,22.6v41.2c0,4.1,3.3,7.3,7.5,7.3c4.1,0,7.3-3.2,7.3-7.3V60.4C603,40.3,590.3,27.2,570.6,27.2z"/>
		</g>
	</g>
</g>
</svg>